<mxfile host="Electron" agent="Mozilla/5.0 (X11; Linux x86_64) AppleWebKit/537.36 (KHTML, like Gecko) draw.io/26.0.9 Chrome/128.0.6613.186 Electron/32.2.5 Safari/537.36" version="26.0.9">
  <diagram name="Страница — 1" id="oFkQqqdzSxgXfCaa4rfi">
    <mxGraphModel dx="2781" dy="2366" grid="1" gridSize="10" guides="1" tooltips="1" connect="1" arrows="1" fold="1" page="1" pageScale="1" pageWidth="827" pageHeight="1169" math="0" shadow="0">
      <root>
        <mxCell id="0" />
        <mxCell id="1" parent="0" />
        <mxCell id="vHab622oGyUNjicq3GTj-1" value="films" style="shape=table;startSize=30;container=1;collapsible=0;childLayout=tableLayout;fixedRows=1;rowLines=0;fontStyle=0;strokeColor=default;fontSize=16;" parent="1" vertex="1">
          <mxGeometry x="420" y="245" width="180" height="340" as="geometry" />
        </mxCell>
        <mxCell id="vHab622oGyUNjicq3GTj-2" value="" style="shape=tableRow;horizontal=0;startSize=0;swimlaneHead=0;swimlaneBody=0;top=0;left=0;bottom=0;right=0;collapsible=0;dropTarget=0;fillColor=none;points=[[0,0.5],[1,0.5]];portConstraint=eastwest;strokeColor=inherit;fontSize=16;" parent="vHab622oGyUNjicq3GTj-1" vertex="1">
          <mxGeometry y="30" width="180" height="30" as="geometry" />
        </mxCell>
        <mxCell id="vHab622oGyUNjicq3GTj-3" value="1" style="shape=partialRectangle;html=1;whiteSpace=wrap;connectable=0;fillColor=none;top=0;left=0;bottom=0;right=0;overflow=hidden;pointerEvents=1;strokeColor=inherit;fontSize=16;" parent="vHab622oGyUNjicq3GTj-2" vertex="1">
          <mxGeometry width="40" height="30" as="geometry">
            <mxRectangle width="40" height="30" as="alternateBounds" />
          </mxGeometry>
        </mxCell>
        <mxCell id="vHab622oGyUNjicq3GTj-4" value="id" style="shape=partialRectangle;html=1;whiteSpace=wrap;connectable=0;fillColor=none;top=0;left=0;bottom=0;right=0;align=left;spacingLeft=6;overflow=hidden;strokeColor=inherit;fontSize=16;" parent="vHab622oGyUNjicq3GTj-2" vertex="1">
          <mxGeometry x="40" width="140" height="30" as="geometry">
            <mxRectangle width="140" height="30" as="alternateBounds" />
          </mxGeometry>
        </mxCell>
        <mxCell id="vHab622oGyUNjicq3GTj-5" value="" style="shape=tableRow;horizontal=0;startSize=0;swimlaneHead=0;swimlaneBody=0;top=0;left=0;bottom=0;right=0;collapsible=0;dropTarget=0;fillColor=none;points=[[0,0.5],[1,0.5]];portConstraint=eastwest;strokeColor=inherit;fontSize=16;" parent="vHab622oGyUNjicq3GTj-1" vertex="1">
          <mxGeometry y="60" width="180" height="40" as="geometry" />
        </mxCell>
        <mxCell id="vHab622oGyUNjicq3GTj-6" value="2" style="shape=partialRectangle;html=1;whiteSpace=wrap;connectable=0;fillColor=none;top=0;left=0;bottom=0;right=0;overflow=hidden;strokeColor=inherit;fontSize=16;" parent="vHab622oGyUNjicq3GTj-5" vertex="1">
          <mxGeometry width="40" height="40" as="geometry">
            <mxRectangle width="40" height="40" as="alternateBounds" />
          </mxGeometry>
        </mxCell>
        <mxCell id="vHab622oGyUNjicq3GTj-7" value="name" style="shape=partialRectangle;html=1;whiteSpace=wrap;connectable=0;fillColor=none;top=0;left=0;bottom=0;right=0;align=left;spacingLeft=6;overflow=hidden;strokeColor=inherit;fontSize=16;" parent="vHab622oGyUNjicq3GTj-5" vertex="1">
          <mxGeometry x="40" width="140" height="40" as="geometry">
            <mxRectangle width="140" height="40" as="alternateBounds" />
          </mxGeometry>
        </mxCell>
        <mxCell id="vHab622oGyUNjicq3GTj-8" value="" style="shape=tableRow;horizontal=0;startSize=0;swimlaneHead=0;swimlaneBody=0;top=0;left=0;bottom=0;right=0;collapsible=0;dropTarget=0;fillColor=none;points=[[0,0.5],[1,0.5]];portConstraint=eastwest;strokeColor=inherit;fontSize=16;" parent="vHab622oGyUNjicq3GTj-1" vertex="1">
          <mxGeometry y="100" width="180" height="40" as="geometry" />
        </mxCell>
        <mxCell id="vHab622oGyUNjicq3GTj-9" value="3" style="shape=partialRectangle;html=1;whiteSpace=wrap;connectable=0;fillColor=none;top=0;left=0;bottom=0;right=0;overflow=hidden;strokeColor=inherit;fontSize=16;" parent="vHab622oGyUNjicq3GTj-8" vertex="1">
          <mxGeometry width="40" height="40" as="geometry">
            <mxRectangle width="40" height="40" as="alternateBounds" />
          </mxGeometry>
        </mxCell>
        <mxCell id="vHab622oGyUNjicq3GTj-10" value="description" style="shape=partialRectangle;html=1;whiteSpace=wrap;connectable=0;fillColor=none;top=0;left=0;bottom=0;right=0;align=left;spacingLeft=6;overflow=hidden;strokeColor=inherit;fontSize=16;" parent="vHab622oGyUNjicq3GTj-8" vertex="1">
          <mxGeometry x="40" width="140" height="40" as="geometry">
            <mxRectangle width="140" height="40" as="alternateBounds" />
          </mxGeometry>
        </mxCell>
        <mxCell id="c4DvOJZp95dYfo0B3kAv-1" value="" style="shape=tableRow;horizontal=0;startSize=0;swimlaneHead=0;swimlaneBody=0;top=0;left=0;bottom=0;right=0;collapsible=0;dropTarget=0;fillColor=none;points=[[0,0.5],[1,0.5]];portConstraint=eastwest;strokeColor=inherit;fontSize=16;" parent="vHab622oGyUNjicq3GTj-1" vertex="1">
          <mxGeometry y="140" width="180" height="40" as="geometry" />
        </mxCell>
        <mxCell id="c4DvOJZp95dYfo0B3kAv-2" value="4" style="shape=partialRectangle;html=1;whiteSpace=wrap;connectable=0;fillColor=none;top=0;left=0;bottom=0;right=0;overflow=hidden;strokeColor=inherit;fontSize=16;" parent="c4DvOJZp95dYfo0B3kAv-1" vertex="1">
          <mxGeometry width="40" height="40" as="geometry">
            <mxRectangle width="40" height="40" as="alternateBounds" />
          </mxGeometry>
        </mxCell>
        <mxCell id="c4DvOJZp95dYfo0B3kAv-3" value="country_id" style="shape=partialRectangle;html=1;whiteSpace=wrap;connectable=0;fillColor=none;top=0;left=0;bottom=0;right=0;align=left;spacingLeft=6;overflow=hidden;strokeColor=inherit;fontSize=16;" parent="c4DvOJZp95dYfo0B3kAv-1" vertex="1">
          <mxGeometry x="40" width="140" height="40" as="geometry">
            <mxRectangle width="140" height="40" as="alternateBounds" />
          </mxGeometry>
        </mxCell>
        <mxCell id="c4DvOJZp95dYfo0B3kAv-20" value="" style="shape=tableRow;horizontal=0;startSize=0;swimlaneHead=0;swimlaneBody=0;top=0;left=0;bottom=0;right=0;collapsible=0;dropTarget=0;fillColor=none;points=[[0,0.5],[1,0.5]];portConstraint=eastwest;strokeColor=inherit;fontSize=16;" parent="vHab622oGyUNjicq3GTj-1" vertex="1">
          <mxGeometry y="180" width="180" height="40" as="geometry" />
        </mxCell>
        <mxCell id="c4DvOJZp95dYfo0B3kAv-21" value="5" style="shape=partialRectangle;html=1;whiteSpace=wrap;connectable=0;fillColor=none;top=0;left=0;bottom=0;right=0;overflow=hidden;strokeColor=inherit;fontSize=16;" parent="c4DvOJZp95dYfo0B3kAv-20" vertex="1">
          <mxGeometry width="40" height="40" as="geometry">
            <mxRectangle width="40" height="40" as="alternateBounds" />
          </mxGeometry>
        </mxCell>
        <mxCell id="c4DvOJZp95dYfo0B3kAv-22" value="data_&lt;span style=&quot;color: light-dark(rgb(0, 0, 0), rgb(255, 255, 255)); background-color: transparent;&quot;&gt;publication&lt;/span&gt;" style="shape=partialRectangle;html=1;whiteSpace=wrap;connectable=0;fillColor=none;top=0;left=0;bottom=0;right=0;align=left;spacingLeft=6;overflow=hidden;strokeColor=inherit;fontSize=16;" parent="c4DvOJZp95dYfo0B3kAv-20" vertex="1">
          <mxGeometry x="40" width="140" height="40" as="geometry">
            <mxRectangle width="140" height="40" as="alternateBounds" />
          </mxGeometry>
        </mxCell>
        <mxCell id="c4DvOJZp95dYfo0B3kAv-23" value="" style="shape=tableRow;horizontal=0;startSize=0;swimlaneHead=0;swimlaneBody=0;top=0;left=0;bottom=0;right=0;collapsible=0;dropTarget=0;fillColor=none;points=[[0,0.5],[1,0.5]];portConstraint=eastwest;strokeColor=inherit;fontSize=16;" parent="vHab622oGyUNjicq3GTj-1" vertex="1">
          <mxGeometry y="220" width="180" height="40" as="geometry" />
        </mxCell>
        <mxCell id="c4DvOJZp95dYfo0B3kAv-24" value="6" style="shape=partialRectangle;html=1;whiteSpace=wrap;connectable=0;fillColor=none;top=0;left=0;bottom=0;right=0;overflow=hidden;strokeColor=inherit;fontSize=16;" parent="c4DvOJZp95dYfo0B3kAv-23" vertex="1">
          <mxGeometry width="40" height="40" as="geometry">
            <mxRectangle width="40" height="40" as="alternateBounds" />
          </mxGeometry>
        </mxCell>
        <mxCell id="c4DvOJZp95dYfo0B3kAv-25" value="type_id" style="shape=partialRectangle;html=1;whiteSpace=wrap;connectable=0;fillColor=none;top=0;left=0;bottom=0;right=0;align=left;spacingLeft=6;overflow=hidden;strokeColor=inherit;fontSize=16;" parent="c4DvOJZp95dYfo0B3kAv-23" vertex="1">
          <mxGeometry x="40" width="140" height="40" as="geometry">
            <mxRectangle width="140" height="40" as="alternateBounds" />
          </mxGeometry>
        </mxCell>
        <mxCell id="IiEmRymCrTYHVY4IHeIS-7" value="" style="shape=tableRow;horizontal=0;startSize=0;swimlaneHead=0;swimlaneBody=0;top=0;left=0;bottom=0;right=0;collapsible=0;dropTarget=0;fillColor=none;points=[[0,0.5],[1,0.5]];portConstraint=eastwest;strokeColor=inherit;fontSize=16;" parent="vHab622oGyUNjicq3GTj-1" vertex="1">
          <mxGeometry y="260" width="180" height="40" as="geometry" />
        </mxCell>
        <mxCell id="IiEmRymCrTYHVY4IHeIS-8" value="7" style="shape=partialRectangle;html=1;whiteSpace=wrap;connectable=0;fillColor=none;top=0;left=0;bottom=0;right=0;overflow=hidden;strokeColor=inherit;fontSize=16;" parent="IiEmRymCrTYHVY4IHeIS-7" vertex="1">
          <mxGeometry width="40" height="40" as="geometry">
            <mxRectangle width="40" height="40" as="alternateBounds" />
          </mxGeometry>
        </mxCell>
        <mxCell id="IiEmRymCrTYHVY4IHeIS-9" value="created_at" style="shape=partialRectangle;html=1;whiteSpace=wrap;connectable=0;fillColor=none;top=0;left=0;bottom=0;right=0;align=left;spacingLeft=6;overflow=hidden;strokeColor=inherit;fontSize=16;" parent="IiEmRymCrTYHVY4IHeIS-7" vertex="1">
          <mxGeometry x="40" width="140" height="40" as="geometry">
            <mxRectangle width="140" height="40" as="alternateBounds" />
          </mxGeometry>
        </mxCell>
        <mxCell id="IiEmRymCrTYHVY4IHeIS-32" value="" style="shape=tableRow;horizontal=0;startSize=0;swimlaneHead=0;swimlaneBody=0;top=0;left=0;bottom=0;right=0;collapsible=0;dropTarget=0;fillColor=none;points=[[0,0.5],[1,0.5]];portConstraint=eastwest;strokeColor=inherit;fontSize=16;" parent="vHab622oGyUNjicq3GTj-1" vertex="1">
          <mxGeometry y="300" width="180" height="40" as="geometry" />
        </mxCell>
        <mxCell id="IiEmRymCrTYHVY4IHeIS-33" value="8" style="shape=partialRectangle;html=1;whiteSpace=wrap;connectable=0;fillColor=none;top=0;left=0;bottom=0;right=0;overflow=hidden;strokeColor=inherit;fontSize=16;" parent="IiEmRymCrTYHVY4IHeIS-32" vertex="1">
          <mxGeometry width="40" height="40" as="geometry">
            <mxRectangle width="40" height="40" as="alternateBounds" />
          </mxGeometry>
        </mxCell>
        <mxCell id="IiEmRymCrTYHVY4IHeIS-34" value="updated_at" style="shape=partialRectangle;html=1;whiteSpace=wrap;connectable=0;fillColor=none;top=0;left=0;bottom=0;right=0;align=left;spacingLeft=6;overflow=hidden;strokeColor=inherit;fontSize=16;" parent="IiEmRymCrTYHVY4IHeIS-32" vertex="1">
          <mxGeometry x="40" width="140" height="40" as="geometry">
            <mxRectangle width="140" height="40" as="alternateBounds" />
          </mxGeometry>
        </mxCell>
        <mxCell id="c4DvOJZp95dYfo0B3kAv-7" value="users" style="shape=table;startSize=30;container=1;collapsible=0;childLayout=tableLayout;fixedRows=1;rowLines=0;fontStyle=0;strokeColor=default;fontSize=16;" parent="1" vertex="1">
          <mxGeometry x="-120" y="285" width="180" height="300" as="geometry" />
        </mxCell>
        <mxCell id="c4DvOJZp95dYfo0B3kAv-8" value="" style="shape=tableRow;horizontal=0;startSize=0;swimlaneHead=0;swimlaneBody=0;top=0;left=0;bottom=0;right=0;collapsible=0;dropTarget=0;fillColor=none;points=[[0,0.5],[1,0.5]];portConstraint=eastwest;strokeColor=inherit;fontSize=16;" parent="c4DvOJZp95dYfo0B3kAv-7" vertex="1">
          <mxGeometry y="30" width="180" height="30" as="geometry" />
        </mxCell>
        <mxCell id="c4DvOJZp95dYfo0B3kAv-9" value="1" style="shape=partialRectangle;html=1;whiteSpace=wrap;connectable=0;fillColor=none;top=0;left=0;bottom=0;right=0;overflow=hidden;pointerEvents=1;strokeColor=inherit;fontSize=16;" parent="c4DvOJZp95dYfo0B3kAv-8" vertex="1">
          <mxGeometry width="40" height="30" as="geometry">
            <mxRectangle width="40" height="30" as="alternateBounds" />
          </mxGeometry>
        </mxCell>
        <mxCell id="c4DvOJZp95dYfo0B3kAv-10" value="id" style="shape=partialRectangle;html=1;whiteSpace=wrap;connectable=0;fillColor=none;top=0;left=0;bottom=0;right=0;align=left;spacingLeft=6;overflow=hidden;strokeColor=inherit;fontSize=16;" parent="c4DvOJZp95dYfo0B3kAv-8" vertex="1">
          <mxGeometry x="40" width="140" height="30" as="geometry">
            <mxRectangle width="140" height="30" as="alternateBounds" />
          </mxGeometry>
        </mxCell>
        <mxCell id="c4DvOJZp95dYfo0B3kAv-11" value="" style="shape=tableRow;horizontal=0;startSize=0;swimlaneHead=0;swimlaneBody=0;top=0;left=0;bottom=0;right=0;collapsible=0;dropTarget=0;fillColor=none;points=[[0,0.5],[1,0.5]];portConstraint=eastwest;strokeColor=inherit;fontSize=16;" parent="c4DvOJZp95dYfo0B3kAv-7" vertex="1">
          <mxGeometry y="60" width="180" height="40" as="geometry" />
        </mxCell>
        <mxCell id="c4DvOJZp95dYfo0B3kAv-12" value="2" style="shape=partialRectangle;html=1;whiteSpace=wrap;connectable=0;fillColor=none;top=0;left=0;bottom=0;right=0;overflow=hidden;strokeColor=inherit;fontSize=16;" parent="c4DvOJZp95dYfo0B3kAv-11" vertex="1">
          <mxGeometry width="40" height="40" as="geometry">
            <mxRectangle width="40" height="40" as="alternateBounds" />
          </mxGeometry>
        </mxCell>
        <mxCell id="c4DvOJZp95dYfo0B3kAv-13" value="name" style="shape=partialRectangle;html=1;whiteSpace=wrap;connectable=0;fillColor=none;top=0;left=0;bottom=0;right=0;align=left;spacingLeft=6;overflow=hidden;strokeColor=inherit;fontSize=16;" parent="c4DvOJZp95dYfo0B3kAv-11" vertex="1">
          <mxGeometry x="40" width="140" height="40" as="geometry">
            <mxRectangle width="140" height="40" as="alternateBounds" />
          </mxGeometry>
        </mxCell>
        <mxCell id="c4DvOJZp95dYfo0B3kAv-14" value="" style="shape=tableRow;horizontal=0;startSize=0;swimlaneHead=0;swimlaneBody=0;top=0;left=0;bottom=0;right=0;collapsible=0;dropTarget=0;fillColor=none;points=[[0,0.5],[1,0.5]];portConstraint=eastwest;strokeColor=inherit;fontSize=16;" parent="c4DvOJZp95dYfo0B3kAv-7" vertex="1">
          <mxGeometry y="100" width="180" height="40" as="geometry" />
        </mxCell>
        <mxCell id="c4DvOJZp95dYfo0B3kAv-15" value="3" style="shape=partialRectangle;html=1;whiteSpace=wrap;connectable=0;fillColor=none;top=0;left=0;bottom=0;right=0;overflow=hidden;strokeColor=inherit;fontSize=16;" parent="c4DvOJZp95dYfo0B3kAv-14" vertex="1">
          <mxGeometry width="40" height="40" as="geometry">
            <mxRectangle width="40" height="40" as="alternateBounds" />
          </mxGeometry>
        </mxCell>
        <mxCell id="c4DvOJZp95dYfo0B3kAv-16" value="avatar" style="shape=partialRectangle;html=1;whiteSpace=wrap;connectable=0;fillColor=none;top=0;left=0;bottom=0;right=0;align=left;spacingLeft=6;overflow=hidden;strokeColor=inherit;fontSize=16;" parent="c4DvOJZp95dYfo0B3kAv-14" vertex="1">
          <mxGeometry x="40" width="140" height="40" as="geometry">
            <mxRectangle width="140" height="40" as="alternateBounds" />
          </mxGeometry>
        </mxCell>
        <mxCell id="c4DvOJZp95dYfo0B3kAv-17" value="" style="shape=tableRow;horizontal=0;startSize=0;swimlaneHead=0;swimlaneBody=0;top=0;left=0;bottom=0;right=0;collapsible=0;dropTarget=0;fillColor=none;points=[[0,0.5],[1,0.5]];portConstraint=eastwest;strokeColor=inherit;fontSize=16;" parent="c4DvOJZp95dYfo0B3kAv-7" vertex="1">
          <mxGeometry y="140" width="180" height="40" as="geometry" />
        </mxCell>
        <mxCell id="c4DvOJZp95dYfo0B3kAv-18" value="4" style="shape=partialRectangle;html=1;whiteSpace=wrap;connectable=0;fillColor=none;top=0;left=0;bottom=0;right=0;overflow=hidden;strokeColor=inherit;fontSize=16;" parent="c4DvOJZp95dYfo0B3kAv-17" vertex="1">
          <mxGeometry width="40" height="40" as="geometry">
            <mxRectangle width="40" height="40" as="alternateBounds" />
          </mxGeometry>
        </mxCell>
        <mxCell id="c4DvOJZp95dYfo0B3kAv-19" value="email" style="shape=partialRectangle;html=1;whiteSpace=wrap;connectable=0;fillColor=none;top=0;left=0;bottom=0;right=0;align=left;spacingLeft=6;overflow=hidden;strokeColor=inherit;fontSize=16;" parent="c4DvOJZp95dYfo0B3kAv-17" vertex="1">
          <mxGeometry x="40" width="140" height="40" as="geometry">
            <mxRectangle width="140" height="40" as="alternateBounds" />
          </mxGeometry>
        </mxCell>
        <mxCell id="c4DvOJZp95dYfo0B3kAv-26" value="" style="shape=tableRow;horizontal=0;startSize=0;swimlaneHead=0;swimlaneBody=0;top=0;left=0;bottom=0;right=0;collapsible=0;dropTarget=0;fillColor=none;points=[[0,0.5],[1,0.5]];portConstraint=eastwest;strokeColor=inherit;fontSize=16;" parent="c4DvOJZp95dYfo0B3kAv-7" vertex="1">
          <mxGeometry y="180" width="180" height="40" as="geometry" />
        </mxCell>
        <mxCell id="c4DvOJZp95dYfo0B3kAv-27" value="5" style="shape=partialRectangle;html=1;whiteSpace=wrap;connectable=0;fillColor=none;top=0;left=0;bottom=0;right=0;overflow=hidden;strokeColor=inherit;fontSize=16;" parent="c4DvOJZp95dYfo0B3kAv-26" vertex="1">
          <mxGeometry width="40" height="40" as="geometry">
            <mxRectangle width="40" height="40" as="alternateBounds" />
          </mxGeometry>
        </mxCell>
        <mxCell id="c4DvOJZp95dYfo0B3kAv-28" value="password" style="shape=partialRectangle;html=1;whiteSpace=wrap;connectable=0;fillColor=none;top=0;left=0;bottom=0;right=0;align=left;spacingLeft=6;overflow=hidden;strokeColor=inherit;fontSize=16;" parent="c4DvOJZp95dYfo0B3kAv-26" vertex="1">
          <mxGeometry x="40" width="140" height="40" as="geometry">
            <mxRectangle width="140" height="40" as="alternateBounds" />
          </mxGeometry>
        </mxCell>
        <mxCell id="c4DvOJZp95dYfo0B3kAv-30" value="" style="shape=tableRow;horizontal=0;startSize=0;swimlaneHead=0;swimlaneBody=0;top=0;left=0;bottom=0;right=0;collapsible=0;dropTarget=0;fillColor=none;points=[[0,0.5],[1,0.5]];portConstraint=eastwest;strokeColor=inherit;fontSize=16;" parent="c4DvOJZp95dYfo0B3kAv-7" vertex="1">
          <mxGeometry y="220" width="180" height="40" as="geometry" />
        </mxCell>
        <mxCell id="c4DvOJZp95dYfo0B3kAv-31" value="6" style="shape=partialRectangle;html=1;whiteSpace=wrap;connectable=0;fillColor=none;top=0;left=0;bottom=0;right=0;overflow=hidden;strokeColor=inherit;fontSize=16;" parent="c4DvOJZp95dYfo0B3kAv-30" vertex="1">
          <mxGeometry width="40" height="40" as="geometry">
            <mxRectangle width="40" height="40" as="alternateBounds" />
          </mxGeometry>
        </mxCell>
        <mxCell id="c4DvOJZp95dYfo0B3kAv-32" value="created_at" style="shape=partialRectangle;html=1;whiteSpace=wrap;connectable=0;fillColor=none;top=0;left=0;bottom=0;right=0;align=left;spacingLeft=6;overflow=hidden;strokeColor=inherit;fontSize=16;" parent="c4DvOJZp95dYfo0B3kAv-30" vertex="1">
          <mxGeometry x="40" width="140" height="40" as="geometry">
            <mxRectangle width="140" height="40" as="alternateBounds" />
          </mxGeometry>
        </mxCell>
        <mxCell id="c4DvOJZp95dYfo0B3kAv-33" value="" style="shape=tableRow;horizontal=0;startSize=0;swimlaneHead=0;swimlaneBody=0;top=0;left=0;bottom=0;right=0;collapsible=0;dropTarget=0;fillColor=none;points=[[0,0.5],[1,0.5]];portConstraint=eastwest;strokeColor=inherit;fontSize=16;" parent="c4DvOJZp95dYfo0B3kAv-7" vertex="1">
          <mxGeometry y="260" width="180" height="40" as="geometry" />
        </mxCell>
        <mxCell id="c4DvOJZp95dYfo0B3kAv-34" value="7" style="shape=partialRectangle;html=1;whiteSpace=wrap;connectable=0;fillColor=none;top=0;left=0;bottom=0;right=0;overflow=hidden;strokeColor=inherit;fontSize=16;" parent="c4DvOJZp95dYfo0B3kAv-33" vertex="1">
          <mxGeometry width="40" height="40" as="geometry">
            <mxRectangle width="40" height="40" as="alternateBounds" />
          </mxGeometry>
        </mxCell>
        <mxCell id="c4DvOJZp95dYfo0B3kAv-35" value="updated_at" style="shape=partialRectangle;html=1;whiteSpace=wrap;connectable=0;fillColor=none;top=0;left=0;bottom=0;right=0;align=left;spacingLeft=6;overflow=hidden;strokeColor=inherit;fontSize=16;" parent="c4DvOJZp95dYfo0B3kAv-33" vertex="1">
          <mxGeometry x="40" width="140" height="40" as="geometry">
            <mxRectangle width="140" height="40" as="alternateBounds" />
          </mxGeometry>
        </mxCell>
        <mxCell id="c4DvOJZp95dYfo0B3kAv-36" value="contries" style="shape=table;startSize=30;container=1;collapsible=0;childLayout=tableLayout;fixedRows=1;rowLines=0;fontStyle=0;strokeColor=default;fontSize=16;" parent="1" vertex="1">
          <mxGeometry x="940" y="175" width="180" height="100" as="geometry" />
        </mxCell>
        <mxCell id="c4DvOJZp95dYfo0B3kAv-37" value="" style="shape=tableRow;horizontal=0;startSize=0;swimlaneHead=0;swimlaneBody=0;top=0;left=0;bottom=0;right=0;collapsible=0;dropTarget=0;fillColor=none;points=[[0,0.5],[1,0.5]];portConstraint=eastwest;strokeColor=inherit;fontSize=16;" parent="c4DvOJZp95dYfo0B3kAv-36" vertex="1">
          <mxGeometry y="30" width="180" height="30" as="geometry" />
        </mxCell>
        <mxCell id="c4DvOJZp95dYfo0B3kAv-38" value="1" style="shape=partialRectangle;html=1;whiteSpace=wrap;connectable=0;fillColor=none;top=0;left=0;bottom=0;right=0;overflow=hidden;pointerEvents=1;strokeColor=inherit;fontSize=16;" parent="c4DvOJZp95dYfo0B3kAv-37" vertex="1">
          <mxGeometry width="40" height="30" as="geometry">
            <mxRectangle width="40" height="30" as="alternateBounds" />
          </mxGeometry>
        </mxCell>
        <mxCell id="c4DvOJZp95dYfo0B3kAv-39" value="id" style="shape=partialRectangle;html=1;whiteSpace=wrap;connectable=0;fillColor=none;top=0;left=0;bottom=0;right=0;align=left;spacingLeft=6;overflow=hidden;strokeColor=inherit;fontSize=16;" parent="c4DvOJZp95dYfo0B3kAv-37" vertex="1">
          <mxGeometry x="40" width="140" height="30" as="geometry">
            <mxRectangle width="140" height="30" as="alternateBounds" />
          </mxGeometry>
        </mxCell>
        <mxCell id="c4DvOJZp95dYfo0B3kAv-40" value="" style="shape=tableRow;horizontal=0;startSize=0;swimlaneHead=0;swimlaneBody=0;top=0;left=0;bottom=0;right=0;collapsible=0;dropTarget=0;fillColor=none;points=[[0,0.5],[1,0.5]];portConstraint=eastwest;strokeColor=inherit;fontSize=16;" parent="c4DvOJZp95dYfo0B3kAv-36" vertex="1">
          <mxGeometry y="60" width="180" height="40" as="geometry" />
        </mxCell>
        <mxCell id="c4DvOJZp95dYfo0B3kAv-41" value="2" style="shape=partialRectangle;html=1;whiteSpace=wrap;connectable=0;fillColor=none;top=0;left=0;bottom=0;right=0;overflow=hidden;strokeColor=inherit;fontSize=16;" parent="c4DvOJZp95dYfo0B3kAv-40" vertex="1">
          <mxGeometry width="40" height="40" as="geometry">
            <mxRectangle width="40" height="40" as="alternateBounds" />
          </mxGeometry>
        </mxCell>
        <mxCell id="c4DvOJZp95dYfo0B3kAv-42" value="name" style="shape=partialRectangle;html=1;whiteSpace=wrap;connectable=0;fillColor=none;top=0;left=0;bottom=0;right=0;align=left;spacingLeft=6;overflow=hidden;strokeColor=inherit;fontSize=16;" parent="c4DvOJZp95dYfo0B3kAv-40" vertex="1">
          <mxGeometry x="40" width="140" height="40" as="geometry">
            <mxRectangle width="140" height="40" as="alternateBounds" />
          </mxGeometry>
        </mxCell>
        <mxCell id="c4DvOJZp95dYfo0B3kAv-56" value="comments" style="shape=table;startSize=30;container=1;collapsible=0;childLayout=tableLayout;fixedRows=1;rowLines=0;fontStyle=0;strokeColor=default;fontSize=16;" parent="1" vertex="1">
          <mxGeometry x="-110" y="-45" width="180" height="185" as="geometry" />
        </mxCell>
        <mxCell id="c4DvOJZp95dYfo0B3kAv-57" value="" style="shape=tableRow;horizontal=0;startSize=0;swimlaneHead=0;swimlaneBody=0;top=0;left=0;bottom=0;right=0;collapsible=0;dropTarget=0;fillColor=none;points=[[0,0.5],[1,0.5]];portConstraint=eastwest;strokeColor=inherit;fontSize=16;" parent="c4DvOJZp95dYfo0B3kAv-56" vertex="1">
          <mxGeometry y="30" width="180" height="35" as="geometry" />
        </mxCell>
        <mxCell id="c4DvOJZp95dYfo0B3kAv-58" value="1" style="shape=partialRectangle;html=1;whiteSpace=wrap;connectable=0;fillColor=none;top=0;left=0;bottom=0;right=0;overflow=hidden;pointerEvents=1;strokeColor=inherit;fontSize=16;" parent="c4DvOJZp95dYfo0B3kAv-57" vertex="1">
          <mxGeometry width="40" height="35" as="geometry">
            <mxRectangle width="40" height="35" as="alternateBounds" />
          </mxGeometry>
        </mxCell>
        <mxCell id="c4DvOJZp95dYfo0B3kAv-59" value="id" style="shape=partialRectangle;html=1;whiteSpace=wrap;connectable=0;fillColor=none;top=0;left=0;bottom=0;right=0;align=left;spacingLeft=6;overflow=hidden;strokeColor=inherit;fontSize=16;" parent="c4DvOJZp95dYfo0B3kAv-57" vertex="1">
          <mxGeometry x="40" width="140" height="35" as="geometry">
            <mxRectangle width="140" height="35" as="alternateBounds" />
          </mxGeometry>
        </mxCell>
        <mxCell id="c4DvOJZp95dYfo0B3kAv-60" value="" style="shape=tableRow;horizontal=0;startSize=0;swimlaneHead=0;swimlaneBody=0;top=0;left=0;bottom=0;right=0;collapsible=0;dropTarget=0;fillColor=none;points=[[0,0.5],[1,0.5]];portConstraint=eastwest;strokeColor=inherit;fontSize=16;" parent="c4DvOJZp95dYfo0B3kAv-56" vertex="1">
          <mxGeometry y="65" width="180" height="40" as="geometry" />
        </mxCell>
        <mxCell id="c4DvOJZp95dYfo0B3kAv-61" value="2" style="shape=partialRectangle;html=1;whiteSpace=wrap;connectable=0;fillColor=none;top=0;left=0;bottom=0;right=0;overflow=hidden;strokeColor=inherit;fontSize=16;" parent="c4DvOJZp95dYfo0B3kAv-60" vertex="1">
          <mxGeometry width="40" height="40" as="geometry">
            <mxRectangle width="40" height="40" as="alternateBounds" />
          </mxGeometry>
        </mxCell>
        <mxCell id="c4DvOJZp95dYfo0B3kAv-62" value="text" style="shape=partialRectangle;html=1;whiteSpace=wrap;connectable=0;fillColor=none;top=0;left=0;bottom=0;right=0;align=left;spacingLeft=6;overflow=hidden;strokeColor=inherit;fontSize=16;" parent="c4DvOJZp95dYfo0B3kAv-60" vertex="1">
          <mxGeometry x="40" width="140" height="40" as="geometry">
            <mxRectangle width="140" height="40" as="alternateBounds" />
          </mxGeometry>
        </mxCell>
        <mxCell id="c4DvOJZp95dYfo0B3kAv-63" value="" style="shape=tableRow;horizontal=0;startSize=0;swimlaneHead=0;swimlaneBody=0;top=0;left=0;bottom=0;right=0;collapsible=0;dropTarget=0;fillColor=none;points=[[0,0.5],[1,0.5]];portConstraint=eastwest;strokeColor=inherit;fontSize=16;" parent="c4DvOJZp95dYfo0B3kAv-56" vertex="1">
          <mxGeometry y="105" width="180" height="40" as="geometry" />
        </mxCell>
        <mxCell id="c4DvOJZp95dYfo0B3kAv-64" value="3" style="shape=partialRectangle;html=1;whiteSpace=wrap;connectable=0;fillColor=none;top=0;left=0;bottom=0;right=0;overflow=hidden;strokeColor=inherit;fontSize=16;" parent="c4DvOJZp95dYfo0B3kAv-63" vertex="1">
          <mxGeometry width="40" height="40" as="geometry">
            <mxRectangle width="40" height="40" as="alternateBounds" />
          </mxGeometry>
        </mxCell>
        <mxCell id="c4DvOJZp95dYfo0B3kAv-65" value="film_id" style="shape=partialRectangle;html=1;whiteSpace=wrap;connectable=0;fillColor=none;top=0;left=0;bottom=0;right=0;align=left;spacingLeft=6;overflow=hidden;strokeColor=inherit;fontSize=16;" parent="c4DvOJZp95dYfo0B3kAv-63" vertex="1">
          <mxGeometry x="40" width="140" height="40" as="geometry">
            <mxRectangle width="140" height="40" as="alternateBounds" />
          </mxGeometry>
        </mxCell>
        <mxCell id="c4DvOJZp95dYfo0B3kAv-114" value="" style="shape=tableRow;horizontal=0;startSize=0;swimlaneHead=0;swimlaneBody=0;top=0;left=0;bottom=0;right=0;collapsible=0;dropTarget=0;fillColor=none;points=[[0,0.5],[1,0.5]];portConstraint=eastwest;strokeColor=inherit;fontSize=16;" parent="c4DvOJZp95dYfo0B3kAv-56" vertex="1">
          <mxGeometry y="145" width="180" height="40" as="geometry" />
        </mxCell>
        <mxCell id="c4DvOJZp95dYfo0B3kAv-115" value="4" style="shape=partialRectangle;html=1;whiteSpace=wrap;connectable=0;fillColor=none;top=0;left=0;bottom=0;right=0;overflow=hidden;strokeColor=inherit;fontSize=16;" parent="c4DvOJZp95dYfo0B3kAv-114" vertex="1">
          <mxGeometry width="40" height="40" as="geometry">
            <mxRectangle width="40" height="40" as="alternateBounds" />
          </mxGeometry>
        </mxCell>
        <mxCell id="c4DvOJZp95dYfo0B3kAv-116" value="user_id" style="shape=partialRectangle;html=1;whiteSpace=wrap;connectable=0;fillColor=none;top=0;left=0;bottom=0;right=0;align=left;spacingLeft=6;overflow=hidden;strokeColor=inherit;fontSize=16;" parent="c4DvOJZp95dYfo0B3kAv-114" vertex="1">
          <mxGeometry x="40" width="140" height="40" as="geometry">
            <mxRectangle width="140" height="40" as="alternateBounds" />
          </mxGeometry>
        </mxCell>
        <mxCell id="c4DvOJZp95dYfo0B3kAv-66" value="films_authors" style="shape=table;startSize=30;container=1;collapsible=0;childLayout=tableLayout;fixedRows=1;rowLines=0;fontStyle=0;strokeColor=default;fontSize=16;" parent="1" vertex="1">
          <mxGeometry x="940" y="350" width="180" height="105" as="geometry" />
        </mxCell>
        <mxCell id="c4DvOJZp95dYfo0B3kAv-67" value="" style="shape=tableRow;horizontal=0;startSize=0;swimlaneHead=0;swimlaneBody=0;top=0;left=0;bottom=0;right=0;collapsible=0;dropTarget=0;fillColor=none;points=[[0,0.5],[1,0.5]];portConstraint=eastwest;strokeColor=inherit;fontSize=16;" parent="c4DvOJZp95dYfo0B3kAv-66" vertex="1">
          <mxGeometry y="30" width="180" height="35" as="geometry" />
        </mxCell>
        <mxCell id="c4DvOJZp95dYfo0B3kAv-68" value="1" style="shape=partialRectangle;html=1;whiteSpace=wrap;connectable=0;fillColor=none;top=0;left=0;bottom=0;right=0;overflow=hidden;pointerEvents=1;strokeColor=inherit;fontSize=16;" parent="c4DvOJZp95dYfo0B3kAv-67" vertex="1">
          <mxGeometry width="40" height="35" as="geometry">
            <mxRectangle width="40" height="35" as="alternateBounds" />
          </mxGeometry>
        </mxCell>
        <mxCell id="c4DvOJZp95dYfo0B3kAv-69" value="films_id" style="shape=partialRectangle;html=1;whiteSpace=wrap;connectable=0;fillColor=none;top=0;left=0;bottom=0;right=0;align=left;spacingLeft=6;overflow=hidden;strokeColor=inherit;fontSize=16;" parent="c4DvOJZp95dYfo0B3kAv-67" vertex="1">
          <mxGeometry x="40" width="140" height="35" as="geometry">
            <mxRectangle width="140" height="35" as="alternateBounds" />
          </mxGeometry>
        </mxCell>
        <mxCell id="c4DvOJZp95dYfo0B3kAv-70" value="" style="shape=tableRow;horizontal=0;startSize=0;swimlaneHead=0;swimlaneBody=0;top=0;left=0;bottom=0;right=0;collapsible=0;dropTarget=0;fillColor=none;points=[[0,0.5],[1,0.5]];portConstraint=eastwest;strokeColor=inherit;fontSize=16;" parent="c4DvOJZp95dYfo0B3kAv-66" vertex="1">
          <mxGeometry y="65" width="180" height="40" as="geometry" />
        </mxCell>
        <mxCell id="c4DvOJZp95dYfo0B3kAv-71" value="2" style="shape=partialRectangle;html=1;whiteSpace=wrap;connectable=0;fillColor=none;top=0;left=0;bottom=0;right=0;overflow=hidden;strokeColor=inherit;fontSize=16;" parent="c4DvOJZp95dYfo0B3kAv-70" vertex="1">
          <mxGeometry width="40" height="40" as="geometry">
            <mxRectangle width="40" height="40" as="alternateBounds" />
          </mxGeometry>
        </mxCell>
        <mxCell id="c4DvOJZp95dYfo0B3kAv-72" value="author_id" style="shape=partialRectangle;html=1;whiteSpace=wrap;connectable=0;fillColor=none;top=0;left=0;bottom=0;right=0;align=left;spacingLeft=6;overflow=hidden;strokeColor=inherit;fontSize=16;" parent="c4DvOJZp95dYfo0B3kAv-70" vertex="1">
          <mxGeometry x="40" width="140" height="40" as="geometry">
            <mxRectangle width="140" height="40" as="alternateBounds" />
          </mxGeometry>
        </mxCell>
        <mxCell id="c4DvOJZp95dYfo0B3kAv-78" value="authors" style="shape=table;startSize=30;container=1;collapsible=0;childLayout=tableLayout;fixedRows=1;rowLines=0;fontStyle=0;strokeColor=default;fontSize=16;" parent="1" vertex="1">
          <mxGeometry x="760" y="640" width="180" height="105" as="geometry" />
        </mxCell>
        <mxCell id="c4DvOJZp95dYfo0B3kAv-79" value="" style="shape=tableRow;horizontal=0;startSize=0;swimlaneHead=0;swimlaneBody=0;top=0;left=0;bottom=0;right=0;collapsible=0;dropTarget=0;fillColor=none;points=[[0,0.5],[1,0.5]];portConstraint=eastwest;strokeColor=inherit;fontSize=16;" parent="c4DvOJZp95dYfo0B3kAv-78" vertex="1">
          <mxGeometry y="30" width="180" height="35" as="geometry" />
        </mxCell>
        <mxCell id="c4DvOJZp95dYfo0B3kAv-80" value="1" style="shape=partialRectangle;html=1;whiteSpace=wrap;connectable=0;fillColor=none;top=0;left=0;bottom=0;right=0;overflow=hidden;pointerEvents=1;strokeColor=inherit;fontSize=16;" parent="c4DvOJZp95dYfo0B3kAv-79" vertex="1">
          <mxGeometry width="40" height="35" as="geometry">
            <mxRectangle width="40" height="35" as="alternateBounds" />
          </mxGeometry>
        </mxCell>
        <mxCell id="c4DvOJZp95dYfo0B3kAv-81" value="id" style="shape=partialRectangle;html=1;whiteSpace=wrap;connectable=0;fillColor=none;top=0;left=0;bottom=0;right=0;align=left;spacingLeft=6;overflow=hidden;strokeColor=inherit;fontSize=16;" parent="c4DvOJZp95dYfo0B3kAv-79" vertex="1">
          <mxGeometry x="40" width="140" height="35" as="geometry">
            <mxRectangle width="140" height="35" as="alternateBounds" />
          </mxGeometry>
        </mxCell>
        <mxCell id="c4DvOJZp95dYfo0B3kAv-82" value="" style="shape=tableRow;horizontal=0;startSize=0;swimlaneHead=0;swimlaneBody=0;top=0;left=0;bottom=0;right=0;collapsible=0;dropTarget=0;fillColor=none;points=[[0,0.5],[1,0.5]];portConstraint=eastwest;strokeColor=inherit;fontSize=16;" parent="c4DvOJZp95dYfo0B3kAv-78" vertex="1">
          <mxGeometry y="65" width="180" height="40" as="geometry" />
        </mxCell>
        <mxCell id="c4DvOJZp95dYfo0B3kAv-83" value="2" style="shape=partialRectangle;html=1;whiteSpace=wrap;connectable=0;fillColor=none;top=0;left=0;bottom=0;right=0;overflow=hidden;strokeColor=inherit;fontSize=16;" parent="c4DvOJZp95dYfo0B3kAv-82" vertex="1">
          <mxGeometry width="40" height="40" as="geometry">
            <mxRectangle width="40" height="40" as="alternateBounds" />
          </mxGeometry>
        </mxCell>
        <mxCell id="c4DvOJZp95dYfo0B3kAv-84" value="name" style="shape=partialRectangle;html=1;whiteSpace=wrap;connectable=0;fillColor=none;top=0;left=0;bottom=0;right=0;align=left;spacingLeft=6;overflow=hidden;strokeColor=inherit;fontSize=16;" parent="c4DvOJZp95dYfo0B3kAv-82" vertex="1">
          <mxGeometry x="40" width="140" height="40" as="geometry">
            <mxRectangle width="140" height="40" as="alternateBounds" />
          </mxGeometry>
        </mxCell>
        <mxCell id="c4DvOJZp95dYfo0B3kAv-91" value="genres" style="shape=table;startSize=30;container=1;collapsible=0;childLayout=tableLayout;fixedRows=1;rowLines=0;fontStyle=0;strokeColor=default;fontSize=16;" parent="1" vertex="1">
          <mxGeometry x="910" y="-30" width="180" height="105" as="geometry" />
        </mxCell>
        <mxCell id="c4DvOJZp95dYfo0B3kAv-92" value="" style="shape=tableRow;horizontal=0;startSize=0;swimlaneHead=0;swimlaneBody=0;top=0;left=0;bottom=0;right=0;collapsible=0;dropTarget=0;fillColor=none;points=[[0,0.5],[1,0.5]];portConstraint=eastwest;strokeColor=inherit;fontSize=16;" parent="c4DvOJZp95dYfo0B3kAv-91" vertex="1">
          <mxGeometry y="30" width="180" height="35" as="geometry" />
        </mxCell>
        <mxCell id="c4DvOJZp95dYfo0B3kAv-93" value="1" style="shape=partialRectangle;html=1;whiteSpace=wrap;connectable=0;fillColor=none;top=0;left=0;bottom=0;right=0;overflow=hidden;pointerEvents=1;strokeColor=inherit;fontSize=16;" parent="c4DvOJZp95dYfo0B3kAv-92" vertex="1">
          <mxGeometry width="40" height="35" as="geometry">
            <mxRectangle width="40" height="35" as="alternateBounds" />
          </mxGeometry>
        </mxCell>
        <mxCell id="c4DvOJZp95dYfo0B3kAv-94" value="id" style="shape=partialRectangle;html=1;whiteSpace=wrap;connectable=0;fillColor=none;top=0;left=0;bottom=0;right=0;align=left;spacingLeft=6;overflow=hidden;strokeColor=inherit;fontSize=16;" parent="c4DvOJZp95dYfo0B3kAv-92" vertex="1">
          <mxGeometry x="40" width="140" height="35" as="geometry">
            <mxRectangle width="140" height="35" as="alternateBounds" />
          </mxGeometry>
        </mxCell>
        <mxCell id="c4DvOJZp95dYfo0B3kAv-95" value="" style="shape=tableRow;horizontal=0;startSize=0;swimlaneHead=0;swimlaneBody=0;top=0;left=0;bottom=0;right=0;collapsible=0;dropTarget=0;fillColor=none;points=[[0,0.5],[1,0.5]];portConstraint=eastwest;strokeColor=inherit;fontSize=16;" parent="c4DvOJZp95dYfo0B3kAv-91" vertex="1">
          <mxGeometry y="65" width="180" height="40" as="geometry" />
        </mxCell>
        <mxCell id="c4DvOJZp95dYfo0B3kAv-96" value="2" style="shape=partialRectangle;html=1;whiteSpace=wrap;connectable=0;fillColor=none;top=0;left=0;bottom=0;right=0;overflow=hidden;strokeColor=inherit;fontSize=16;" parent="c4DvOJZp95dYfo0B3kAv-95" vertex="1">
          <mxGeometry width="40" height="40" as="geometry">
            <mxRectangle width="40" height="40" as="alternateBounds" />
          </mxGeometry>
        </mxCell>
        <mxCell id="c4DvOJZp95dYfo0B3kAv-97" value="name" style="shape=partialRectangle;html=1;whiteSpace=wrap;connectable=0;fillColor=none;top=0;left=0;bottom=0;right=0;align=left;spacingLeft=6;overflow=hidden;strokeColor=inherit;fontSize=16;" parent="c4DvOJZp95dYfo0B3kAv-95" vertex="1">
          <mxGeometry x="40" width="140" height="40" as="geometry">
            <mxRectangle width="140" height="40" as="alternateBounds" />
          </mxGeometry>
        </mxCell>
        <mxCell id="c4DvOJZp95dYfo0B3kAv-121" value="film_genres" style="shape=table;startSize=30;container=1;collapsible=0;childLayout=tableLayout;fixedRows=1;rowLines=0;fontStyle=0;strokeColor=default;fontSize=16;" parent="1" vertex="1">
          <mxGeometry x="400" y="-150" width="180" height="105" as="geometry" />
        </mxCell>
        <mxCell id="c4DvOJZp95dYfo0B3kAv-122" value="" style="shape=tableRow;horizontal=0;startSize=0;swimlaneHead=0;swimlaneBody=0;top=0;left=0;bottom=0;right=0;collapsible=0;dropTarget=0;fillColor=none;points=[[0,0.5],[1,0.5]];portConstraint=eastwest;strokeColor=inherit;fontSize=16;" parent="c4DvOJZp95dYfo0B3kAv-121" vertex="1">
          <mxGeometry y="30" width="180" height="35" as="geometry" />
        </mxCell>
        <mxCell id="c4DvOJZp95dYfo0B3kAv-123" value="1" style="shape=partialRectangle;html=1;whiteSpace=wrap;connectable=0;fillColor=none;top=0;left=0;bottom=0;right=0;overflow=hidden;pointerEvents=1;strokeColor=inherit;fontSize=16;" parent="c4DvOJZp95dYfo0B3kAv-122" vertex="1">
          <mxGeometry width="40" height="35" as="geometry">
            <mxRectangle width="40" height="35" as="alternateBounds" />
          </mxGeometry>
        </mxCell>
        <mxCell id="c4DvOJZp95dYfo0B3kAv-124" value="film_id" style="shape=partialRectangle;html=1;whiteSpace=wrap;connectable=0;fillColor=none;top=0;left=0;bottom=0;right=0;align=left;spacingLeft=6;overflow=hidden;strokeColor=inherit;fontSize=16;" parent="c4DvOJZp95dYfo0B3kAv-122" vertex="1">
          <mxGeometry x="40" width="140" height="35" as="geometry">
            <mxRectangle width="140" height="35" as="alternateBounds" />
          </mxGeometry>
        </mxCell>
        <mxCell id="c4DvOJZp95dYfo0B3kAv-125" value="" style="shape=tableRow;horizontal=0;startSize=0;swimlaneHead=0;swimlaneBody=0;top=0;left=0;bottom=0;right=0;collapsible=0;dropTarget=0;fillColor=none;points=[[0,0.5],[1,0.5]];portConstraint=eastwest;strokeColor=inherit;fontSize=16;" parent="c4DvOJZp95dYfo0B3kAv-121" vertex="1">
          <mxGeometry y="65" width="180" height="40" as="geometry" />
        </mxCell>
        <mxCell id="c4DvOJZp95dYfo0B3kAv-126" value="2" style="shape=partialRectangle;html=1;whiteSpace=wrap;connectable=0;fillColor=none;top=0;left=0;bottom=0;right=0;overflow=hidden;strokeColor=inherit;fontSize=16;" parent="c4DvOJZp95dYfo0B3kAv-125" vertex="1">
          <mxGeometry width="40" height="40" as="geometry">
            <mxRectangle width="40" height="40" as="alternateBounds" />
          </mxGeometry>
        </mxCell>
        <mxCell id="c4DvOJZp95dYfo0B3kAv-127" value="genery_id" style="shape=partialRectangle;html=1;whiteSpace=wrap;connectable=0;fillColor=none;top=0;left=0;bottom=0;right=0;align=left;spacingLeft=6;overflow=hidden;strokeColor=inherit;fontSize=16;" parent="c4DvOJZp95dYfo0B3kAv-125" vertex="1">
          <mxGeometry x="40" width="140" height="40" as="geometry">
            <mxRectangle width="140" height="40" as="alternateBounds" />
          </mxGeometry>
        </mxCell>
        <mxCell id="c4DvOJZp95dYfo0B3kAv-128" style="edgeStyle=orthogonalEdgeStyle;rounded=0;orthogonalLoop=1;jettySize=auto;html=1;entryX=0;entryY=0.5;entryDx=0;entryDy=0;" parent="1" source="c4DvOJZp95dYfo0B3kAv-125" target="c4DvOJZp95dYfo0B3kAv-92" edge="1">
          <mxGeometry relative="1" as="geometry" />
        </mxCell>
        <mxCell id="c4DvOJZp95dYfo0B3kAv-130" value="ratings" style="shape=table;startSize=30;container=1;collapsible=0;childLayout=tableLayout;fixedRows=1;rowLines=0;fontStyle=0;strokeColor=default;fontSize=16;" parent="1" vertex="1">
          <mxGeometry x="130" y="660" width="180" height="185" as="geometry" />
        </mxCell>
        <mxCell id="c4DvOJZp95dYfo0B3kAv-131" value="" style="shape=tableRow;horizontal=0;startSize=0;swimlaneHead=0;swimlaneBody=0;top=0;left=0;bottom=0;right=0;collapsible=0;dropTarget=0;fillColor=none;points=[[0,0.5],[1,0.5]];portConstraint=eastwest;strokeColor=inherit;fontSize=16;" parent="c4DvOJZp95dYfo0B3kAv-130" vertex="1">
          <mxGeometry y="30" width="180" height="35" as="geometry" />
        </mxCell>
        <mxCell id="c4DvOJZp95dYfo0B3kAv-132" value="1" style="shape=partialRectangle;html=1;whiteSpace=wrap;connectable=0;fillColor=none;top=0;left=0;bottom=0;right=0;overflow=hidden;pointerEvents=1;strokeColor=inherit;fontSize=16;" parent="c4DvOJZp95dYfo0B3kAv-131" vertex="1">
          <mxGeometry width="40" height="35" as="geometry">
            <mxRectangle width="40" height="35" as="alternateBounds" />
          </mxGeometry>
        </mxCell>
        <mxCell id="c4DvOJZp95dYfo0B3kAv-133" value="id" style="shape=partialRectangle;html=1;whiteSpace=wrap;connectable=0;fillColor=none;top=0;left=0;bottom=0;right=0;align=left;spacingLeft=6;overflow=hidden;strokeColor=inherit;fontSize=16;" parent="c4DvOJZp95dYfo0B3kAv-131" vertex="1">
          <mxGeometry x="40" width="140" height="35" as="geometry">
            <mxRectangle width="140" height="35" as="alternateBounds" />
          </mxGeometry>
        </mxCell>
        <mxCell id="c4DvOJZp95dYfo0B3kAv-134" value="" style="shape=tableRow;horizontal=0;startSize=0;swimlaneHead=0;swimlaneBody=0;top=0;left=0;bottom=0;right=0;collapsible=0;dropTarget=0;fillColor=none;points=[[0,0.5],[1,0.5]];portConstraint=eastwest;strokeColor=inherit;fontSize=16;" parent="c4DvOJZp95dYfo0B3kAv-130" vertex="1">
          <mxGeometry y="65" width="180" height="40" as="geometry" />
        </mxCell>
        <mxCell id="c4DvOJZp95dYfo0B3kAv-135" value="2" style="shape=partialRectangle;html=1;whiteSpace=wrap;connectable=0;fillColor=none;top=0;left=0;bottom=0;right=0;overflow=hidden;strokeColor=inherit;fontSize=16;" parent="c4DvOJZp95dYfo0B3kAv-134" vertex="1">
          <mxGeometry width="40" height="40" as="geometry">
            <mxRectangle width="40" height="40" as="alternateBounds" />
          </mxGeometry>
        </mxCell>
        <mxCell id="c4DvOJZp95dYfo0B3kAv-136" value="&lt;span style=&quot;text-align: center; text-wrap: nowrap;&quot;&gt;rating&lt;/span&gt;" style="shape=partialRectangle;html=1;whiteSpace=wrap;connectable=0;fillColor=none;top=0;left=0;bottom=0;right=0;align=left;spacingLeft=6;overflow=hidden;strokeColor=inherit;fontSize=16;" parent="c4DvOJZp95dYfo0B3kAv-134" vertex="1">
          <mxGeometry x="40" width="140" height="40" as="geometry">
            <mxRectangle width="140" height="40" as="alternateBounds" />
          </mxGeometry>
        </mxCell>
        <mxCell id="c4DvOJZp95dYfo0B3kAv-137" value="" style="shape=tableRow;horizontal=0;startSize=0;swimlaneHead=0;swimlaneBody=0;top=0;left=0;bottom=0;right=0;collapsible=0;dropTarget=0;fillColor=none;points=[[0,0.5],[1,0.5]];portConstraint=eastwest;strokeColor=inherit;fontSize=16;" parent="c4DvOJZp95dYfo0B3kAv-130" vertex="1">
          <mxGeometry y="105" width="180" height="40" as="geometry" />
        </mxCell>
        <mxCell id="c4DvOJZp95dYfo0B3kAv-138" value="3" style="shape=partialRectangle;html=1;whiteSpace=wrap;connectable=0;fillColor=none;top=0;left=0;bottom=0;right=0;overflow=hidden;strokeColor=inherit;fontSize=16;" parent="c4DvOJZp95dYfo0B3kAv-137" vertex="1">
          <mxGeometry width="40" height="40" as="geometry">
            <mxRectangle width="40" height="40" as="alternateBounds" />
          </mxGeometry>
        </mxCell>
        <mxCell id="c4DvOJZp95dYfo0B3kAv-139" value="film_id" style="shape=partialRectangle;html=1;whiteSpace=wrap;connectable=0;fillColor=none;top=0;left=0;bottom=0;right=0;align=left;spacingLeft=6;overflow=hidden;strokeColor=inherit;fontSize=16;" parent="c4DvOJZp95dYfo0B3kAv-137" vertex="1">
          <mxGeometry x="40" width="140" height="40" as="geometry">
            <mxRectangle width="140" height="40" as="alternateBounds" />
          </mxGeometry>
        </mxCell>
        <mxCell id="c4DvOJZp95dYfo0B3kAv-141" value="" style="shape=tableRow;horizontal=0;startSize=0;swimlaneHead=0;swimlaneBody=0;top=0;left=0;bottom=0;right=0;collapsible=0;dropTarget=0;fillColor=none;points=[[0,0.5],[1,0.5]];portConstraint=eastwest;strokeColor=inherit;fontSize=16;" parent="c4DvOJZp95dYfo0B3kAv-130" vertex="1">
          <mxGeometry y="145" width="180" height="40" as="geometry" />
        </mxCell>
        <mxCell id="c4DvOJZp95dYfo0B3kAv-142" value="4" style="shape=partialRectangle;html=1;whiteSpace=wrap;connectable=0;fillColor=none;top=0;left=0;bottom=0;right=0;overflow=hidden;strokeColor=inherit;fontSize=16;" parent="c4DvOJZp95dYfo0B3kAv-141" vertex="1">
          <mxGeometry width="40" height="40" as="geometry">
            <mxRectangle width="40" height="40" as="alternateBounds" />
          </mxGeometry>
        </mxCell>
        <mxCell id="c4DvOJZp95dYfo0B3kAv-143" value="user_id" style="shape=partialRectangle;html=1;whiteSpace=wrap;connectable=0;fillColor=none;top=0;left=0;bottom=0;right=0;align=left;spacingLeft=6;overflow=hidden;strokeColor=inherit;fontSize=16;" parent="c4DvOJZp95dYfo0B3kAv-141" vertex="1">
          <mxGeometry x="40" width="140" height="40" as="geometry">
            <mxRectangle width="140" height="40" as="alternateBounds" />
          </mxGeometry>
        </mxCell>
        <mxCell id="IiEmRymCrTYHVY4IHeIS-17" style="edgeStyle=orthogonalEdgeStyle;rounded=0;orthogonalLoop=1;jettySize=auto;html=1;" parent="1" source="c4DvOJZp95dYfo0B3kAv-122" target="vHab622oGyUNjicq3GTj-2" edge="1">
          <mxGeometry relative="1" as="geometry" />
        </mxCell>
        <mxCell id="IiEmRymCrTYHVY4IHeIS-18" style="edgeStyle=orthogonalEdgeStyle;rounded=0;orthogonalLoop=1;jettySize=auto;html=1;exitX=1;exitY=0.5;exitDx=0;exitDy=0;entryX=0.009;entryY=0.922;entryDx=0;entryDy=0;entryPerimeter=0;" parent="1" source="c4DvOJZp95dYfo0B3kAv-63" target="vHab622oGyUNjicq3GTj-2" edge="1">
          <mxGeometry relative="1" as="geometry" />
        </mxCell>
        <mxCell id="IiEmRymCrTYHVY4IHeIS-19" style="edgeStyle=orthogonalEdgeStyle;rounded=0;orthogonalLoop=1;jettySize=auto;html=1;" parent="1" source="c4DvOJZp95dYfo0B3kAv-114" target="c4DvOJZp95dYfo0B3kAv-8" edge="1">
          <mxGeometry relative="1" as="geometry" />
        </mxCell>
        <mxCell id="IiEmRymCrTYHVY4IHeIS-20" style="edgeStyle=orthogonalEdgeStyle;rounded=0;orthogonalLoop=1;jettySize=auto;html=1;exitX=0;exitY=0.5;exitDx=0;exitDy=0;entryX=1;entryY=0.5;entryDx=0;entryDy=0;" parent="1" source="c4DvOJZp95dYfo0B3kAv-141" target="c4DvOJZp95dYfo0B3kAv-8" edge="1">
          <mxGeometry relative="1" as="geometry" />
        </mxCell>
        <mxCell id="IiEmRymCrTYHVY4IHeIS-21" style="edgeStyle=orthogonalEdgeStyle;rounded=0;orthogonalLoop=1;jettySize=auto;html=1;entryX=0.029;entryY=0.765;entryDx=0;entryDy=0;entryPerimeter=0;" parent="1" source="c4DvOJZp95dYfo0B3kAv-137" target="vHab622oGyUNjicq3GTj-2" edge="1">
          <mxGeometry relative="1" as="geometry" />
        </mxCell>
        <mxCell id="IiEmRymCrTYHVY4IHeIS-22" style="edgeStyle=orthogonalEdgeStyle;rounded=0;orthogonalLoop=1;jettySize=auto;html=1;" parent="1" source="c4DvOJZp95dYfo0B3kAv-37" target="c4DvOJZp95dYfo0B3kAv-1" edge="1">
          <mxGeometry relative="1" as="geometry">
            <Array as="points">
              <mxPoint x="790" y="220" />
              <mxPoint x="790" y="405" />
            </Array>
          </mxGeometry>
        </mxCell>
        <mxCell id="IiEmRymCrTYHVY4IHeIS-23" style="edgeStyle=orthogonalEdgeStyle;rounded=0;orthogonalLoop=1;jettySize=auto;html=1;entryX=1;entryY=0.5;entryDx=0;entryDy=0;" parent="1" source="c4DvOJZp95dYfo0B3kAv-67" target="vHab622oGyUNjicq3GTj-2" edge="1">
          <mxGeometry relative="1" as="geometry">
            <Array as="points">
              <mxPoint x="760" y="390" />
              <mxPoint x="760" y="290" />
            </Array>
          </mxGeometry>
        </mxCell>
        <mxCell id="IiEmRymCrTYHVY4IHeIS-24" style="edgeStyle=orthogonalEdgeStyle;rounded=0;orthogonalLoop=1;jettySize=auto;html=1;entryX=1;entryY=0.5;entryDx=0;entryDy=0;" parent="1" source="c4DvOJZp95dYfo0B3kAv-70" target="c4DvOJZp95dYfo0B3kAv-79" edge="1">
          <mxGeometry relative="1" as="geometry" />
        </mxCell>
        <mxCell id="IiEmRymCrTYHVY4IHeIS-25" value="types" style="shape=table;startSize=30;container=1;collapsible=0;childLayout=tableLayout;fixedRows=1;rowLines=0;fontStyle=0;strokeColor=default;fontSize=16;" parent="1" vertex="1">
          <mxGeometry x="460" y="690" width="180" height="105" as="geometry" />
        </mxCell>
        <mxCell id="IiEmRymCrTYHVY4IHeIS-26" value="" style="shape=tableRow;horizontal=0;startSize=0;swimlaneHead=0;swimlaneBody=0;top=0;left=0;bottom=0;right=0;collapsible=0;dropTarget=0;fillColor=none;points=[[0,0.5],[1,0.5]];portConstraint=eastwest;strokeColor=inherit;fontSize=16;" parent="IiEmRymCrTYHVY4IHeIS-25" vertex="1">
          <mxGeometry y="30" width="180" height="35" as="geometry" />
        </mxCell>
        <mxCell id="IiEmRymCrTYHVY4IHeIS-27" value="1" style="shape=partialRectangle;html=1;whiteSpace=wrap;connectable=0;fillColor=none;top=0;left=0;bottom=0;right=0;overflow=hidden;pointerEvents=1;strokeColor=inherit;fontSize=16;" parent="IiEmRymCrTYHVY4IHeIS-26" vertex="1">
          <mxGeometry width="40" height="35" as="geometry">
            <mxRectangle width="40" height="35" as="alternateBounds" />
          </mxGeometry>
        </mxCell>
        <mxCell id="IiEmRymCrTYHVY4IHeIS-28" value="id" style="shape=partialRectangle;html=1;whiteSpace=wrap;connectable=0;fillColor=none;top=0;left=0;bottom=0;right=0;align=left;spacingLeft=6;overflow=hidden;strokeColor=inherit;fontSize=16;" parent="IiEmRymCrTYHVY4IHeIS-26" vertex="1">
          <mxGeometry x="40" width="140" height="35" as="geometry">
            <mxRectangle width="140" height="35" as="alternateBounds" />
          </mxGeometry>
        </mxCell>
        <mxCell id="IiEmRymCrTYHVY4IHeIS-29" value="" style="shape=tableRow;horizontal=0;startSize=0;swimlaneHead=0;swimlaneBody=0;top=0;left=0;bottom=0;right=0;collapsible=0;dropTarget=0;fillColor=none;points=[[0,0.5],[1,0.5]];portConstraint=eastwest;strokeColor=inherit;fontSize=16;" parent="IiEmRymCrTYHVY4IHeIS-25" vertex="1">
          <mxGeometry y="65" width="180" height="40" as="geometry" />
        </mxCell>
        <mxCell id="IiEmRymCrTYHVY4IHeIS-30" value="2" style="shape=partialRectangle;html=1;whiteSpace=wrap;connectable=0;fillColor=none;top=0;left=0;bottom=0;right=0;overflow=hidden;strokeColor=inherit;fontSize=16;" parent="IiEmRymCrTYHVY4IHeIS-29" vertex="1">
          <mxGeometry width="40" height="40" as="geometry">
            <mxRectangle width="40" height="40" as="alternateBounds" />
          </mxGeometry>
        </mxCell>
        <mxCell id="IiEmRymCrTYHVY4IHeIS-31" value="type" style="shape=partialRectangle;html=1;whiteSpace=wrap;connectable=0;fillColor=none;top=0;left=0;bottom=0;right=0;align=left;spacingLeft=6;overflow=hidden;strokeColor=inherit;fontSize=16;" parent="IiEmRymCrTYHVY4IHeIS-29" vertex="1">
          <mxGeometry x="40" width="140" height="40" as="geometry">
            <mxRectangle width="140" height="40" as="alternateBounds" />
          </mxGeometry>
        </mxCell>
        <mxCell id="IiEmRymCrTYHVY4IHeIS-36" style="edgeStyle=orthogonalEdgeStyle;rounded=0;orthogonalLoop=1;jettySize=auto;html=1;entryX=1;entryY=0.5;entryDx=0;entryDy=0;" parent="1" source="c4DvOJZp95dYfo0B3kAv-23" target="IiEmRymCrTYHVY4IHeIS-26" edge="1">
          <mxGeometry relative="1" as="geometry" />
        </mxCell>
      </root>
    </mxGraphModel>
  </diagram>
</mxfile>
